<svg xmlns="http://www.w3.org/2000/svg" xmlns:xlink="http://www.w3.org/1999/xlink"><symbol id="copyright-icon"><path fill="currentColor" d="M13.6 0h-.1L0 1.4v24.7l13.5 8 13.4-8V1.4L13.6 0zM25 12.1L13.5 5.3v-.1h-.1l-.1-.1v.1L1.9 12.1v-9l11.5-1.2L25 3.1v9zM13.4 6.8l11.5 6.7-4.5 2.6-7.1-4.2v1.4l5.9 3.5-.9.5-5-3v1.4l3.8 2.3-.8.5-3-1.8v1.4l1.9 1.1-1.8 1.1L2 13.6l11.4-6.8zM1.9 15.1l11.4 6.8v1l-7.9-4.7v1.4l8 4.8v1.1l-8-4.7v1.4l8 4.8 8.1-4.9v-5.2l3.4-2v10l-11.5 6.9L1.9 25v-9.9z"/></symbol><symbol id="sedona_caption"><g fill="none"><path d="M14.22 7.926c4.725-1.59 5.032-7.46.43-7.46-1.29 0-2.824.917-3.867 2.69L4.523 13.98c-.307.489-.552.917-.92 1.345-1.596-2.201-1.167-5.504 1.104-6.971l-.92-1.162C-1.124 10.311.35 19.238 8.511 19.238c6.935 0 10.188-8.316 5.708-11.312zm-5.77 9.54c-1.41 0-2.454-.307-3.375-.796.43-.489.798-1.04 1.166-1.65l3.928-6.788.614.06c5.462 1.163 3.314 9.173-2.332 9.173zm2.517-10.58l1.902-3.24c1.719-2.936 3.867-1.224 2.7.978-.92 1.712-2.209 2.201-4.602 2.262z" fill="#fff"/><path d="M33.92 15.448c-.369 1.346.368 2.507 1.902 2.507.92 0 2.087-.611 3.253-1.528.122.917.859 1.528 2.025 1.528 1.227 0 2.578-.856 3.928-2.079-.246 1.223.307 2.08 1.473 2.08 1.288 0 2.7-1.162 3.805-2.202-.246 1.223.49 2.201 1.964 2.201 1.902 0 4.111-2.079 6.075-4.28 0-.061-.061-.061-.061-.122 1.289-1.468 2.393-3.058 3.253-4.159-.921 2.385-.43 6.727-2.64 6.727-.797 0-1.104-.856-1.104-.856l-1.473.734s.43 1.895 2.578 1.895c.245 0 .43 0 .675-.061h.061c1.718-.245 3.376-1.284 4.848-2.568.062 1.529 1.228 2.63 3.13 2.63 2.64 0 5.278-2.08 7.18-4.281-.183-.306-.552-.673-.859-.795l-.184.183c-1.657 1.957-3.805 3.486-5.462 3.486-1.411 0-2.27-.918-1.227-2.752l.245-.428c1.473.611 4.296.306 6.076-2.69l.307-.55c1.227-2.141.061-3.731-1.841-3.731-1.903 0-3.375.978-4.357 2.69l-2.271 3.853h-.061l-.185.183c-.859.979-1.902 1.896-2.823 2.507.737-2.2.553-5.625 2.026-8.56l-1.719-.918c-.982 1.346-3.068 4.342-5.155 6.788l.061.061-.061.122c-1.657 1.957-3.314 3.486-4.357 3.486-.491 0-.798-.367-.246-1.284l4.971-8.683h-2.332l-4.112 7.215c-1.78 1.59-3.13 2.507-3.56 2.324-.552-.245 0-1.1.308-1.59l4.541-7.888h-2.332l-3.682 6.36c-.062-.062-.123-.062-.184-.123l-.185.183c-1.657 1.957-3.314 3.486-4.357 3.486-.49 0-.798-.367-.245-1.284l3.743-6.543h-1.35c.061-.979-.92-2.324-2.455-2.324-1.227 0-3.007.979-3.989 2.69l-2.332 4.037a1.283 1.283 0 00-.368-.245l-.184.183c-1.657 1.957-3.805 3.486-5.462 3.486-1.412 0-2.271-.917-1.228-2.752L30.3 9.64c1.35-2.324 3.743-1.896 2.332.49l-.307.55h1.902l.307-.55c1.228-2.141.062-3.73-1.84-3.73-1.903 0-3.376.978-4.358 2.69l-2.332 3.974c-.062-.06-.123-.06-.184-.122l-.184.184c-1.658 1.956-3.806 3.485-5.463 3.485-1.411 0-2.27-.917-1.227-2.752l.245-.428c1.473.612 4.296.306 6.076-2.69l.307-.55c1.227-2.14.061-3.73-1.841-3.73s-3.375.978-4.357 2.69l-2.455 4.158c-1.473 2.446-.184 4.77 2.577 4.77 2.026 0 4.112-1.223 5.77-2.813-.062 1.59 1.165 2.813 3.13 2.813 1.963-.123 3.866-1.223 5.523-2.63zm35.595-5.87c1.35-2.324 3.743-1.896 2.332.49l-.307.55c-1.105 1.895-2.639 1.834-3.498 1.528l1.473-2.568zm-33.263 5.687l3.252-5.626c1.228-2.14 3.744-1.59 2.578.49l-1.841 3.179c-1.412 2.201-2.823 3.24-3.744 3.24-.49-.06-.798-.366-.245-1.283zM21.4 9.578c1.35-2.324 3.744-1.896 2.332.49l-.307.55c-1.105 1.895-2.639 1.834-3.498 1.528L21.4 9.578zM100.323 17.954c2.639 0 5.278-2.08 7.18-4.28-.184-.306-.552-.673-.859-.795l-.184.183c-1.657 1.957-3.805 3.486-5.462 3.486-1.411 0-2.27-.918-1.227-2.752l.245-.428c1.473.611 4.296.306 6.076-2.69l.307-.551c1.227-2.14.061-3.73-1.841-3.73-1.903 0-3.376.978-4.358 2.69l-2.27 3.853s-.062 0-.062-.061l-.184.183c-1.657 1.957-3.314 3.486-4.357 3.486-.491 0-.798-.367-.246-1.284l3.376-5.87c.982-1.774.061-3.058-1.228-3.058-.982 0-2.086.55-3.252 1.773l3.743-6.42h-2.393L86.76 13c-.061-.061-.184-.122-.246-.183L86.33 13c-1.657 1.957-3.314 3.485-4.357 3.485-.49 0-.798-.367-.245-1.284l4.97-8.683h1.903l.675-1.1h-1.902l2.21-3.792H87.25l-2.21 3.791h-2.086L82.28 6.52h2.148l-4.664 8.072c-.982 1.712-.307 3.302 1.595 3.302 1.166 0 2.394-.734 3.683-1.835l-.92 1.59h2.331l3.56-6.115c3.56-4.464 5.155-3.913 4.173-2.201l-3.007 5.259c-.982 1.712-.307 3.302 1.595 3.302 1.412 0 3.008-1.1 4.48-2.568 0 1.528 1.166 2.629 3.069 2.629zm1.903-8.377c1.35-2.324 3.743-1.896 2.332.489l-.307.55c-1.105 1.896-2.639 1.835-3.498 1.529l1.473-2.568zM170.9 12.88l-.184.183c-1.657 1.956-3.314 3.485-4.358 3.485-.491 0-.797-.367-.245-1.284l7.855-13.575h-2.332l-3.437 5.87c-.429-.673-1.166-1.223-2.148-1.223-1.227 0-3.007.979-3.989 2.69l-2.27 3.914c-.062 0-.123-.06-.123-.06l-.184.183c-1.657 1.956-3.314 3.485-4.358 3.485-.491 0-.797-.367-.245-1.284l3.375-5.87c.982-1.774.062-3.058-1.227-3.058-.982 0-2.087.55-3.253 1.712l.859-1.528h-2.332l-3.743 6.42c-.062-.06-.123-.122-.246-.122l-.184.183c-1.657 1.957-3.314 3.486-4.357 3.486-.491 0-.798-.367-.246-1.284l3.744-6.543h-1.166c.061-.979-.921-2.324-2.455-2.324-1.227 0-3.007.979-3.989 2.69l-2.271 3.853-.123.122c-1.657 1.957-3.314 3.486-4.357 3.486-.491 0-.798-.367-.245-1.284l2.332-4.036c.798-1.406.429-2.201-.307-3.119l-1.289-1.59c-.307-.428-.307-.917.123-1.345l-1.228-1.345c-1.35 1.162-1.411 2.507-.613 3.547l.184.244c-1.044 1.468-2.394 3.424-3.928 5.198l.184.183c-1.902 2.202-3.559 3.608-5.4 4.403l2.945-5.014h-2.27l-.246.428c-1.227 2.14-2.639 3.73-4.48 3.73-1.596 0-1.902-1.59-.491-3.975l.675-1.162c.43.062.859.123 1.35.123 8.285 0 12.275-11.068 4.971-11.068-1.288 0-2.823.917-3.866 2.69l-3.621 6.237c-1.35-.733-2.087-2.017-2.087-3.302 0-1.1.491-2.14 1.473-2.935l-.736-1.345c-1.657 1.162-2.394 2.752-2.394 4.342 0 1.834 1.044 3.607 2.946 4.586l-.675 1.223c-1.657 2.813-1.35 5.931 1.964 5.931a4.69 4.69 0 002.516-.734l-.613 1.04c-3.13.978-5.094 2.201-5.094 3.975 0 2.201 3.437 2.69 5.094-.184l1.779-3.057c2.394-.734 4.787-2.385 7.365-5.381-.062-.062-.062-.123-.123-.245 1.043-1.223 1.903-2.385 3.682-4.77l.307.367c.307.367.43.856.123 1.345l-2.455 4.281c-.982 1.712-.307 3.302 1.596 3.302 1.166 0 2.455-.734 3.682-1.834 0 1.04.675 1.834 2.025 1.834.921 0 2.087-.611 3.253-1.529.123.918.859 1.529 2.025 1.529 1.105 0 2.332-.673 3.498-1.712l-.859 1.467h2.332l3.56-6.176c3.559-4.464 5.155-3.852 4.112-2.14l-3.008 5.259c-.981 1.712-.306 3.302 1.596 3.302 1.227 0 2.578-.856 3.928-2.018-.123 1.162.614 2.018 2.025 2.018.921 0 2.087-.611 3.253-1.529.122.918.859 1.529 2.025 1.529 1.902 0 4.112-2.079 6.076-4.28-.246-.123-.675-.49-.982-.612zm-47.808-8.684c.675-1.162 1.473-1.712 2.086-1.712 3.683 0 1.105 7.521-4.971 7.521h-.491l3.376-5.81zm-4.971 17.489c-.491.856-1.289.733-1.289.122 0-.612.552-1.284 2.332-1.957l-1.043 1.835zm24.364-8.439c-1.412 2.201-2.823 3.24-3.744 3.24-.491 0-.797-.366-.245-1.283l3.253-5.626c1.227-2.14 3.743-1.59 2.577.49l-1.841 3.179zm22.523-.122c-1.411 2.323-2.823 3.363-3.805 3.363-.491 0-.798-.367-.245-1.284l3.252-5.626c1.228-2.14 3.744-1.59 2.578.49l-1.78 3.057zM93.143 34.892l-.184.184c-1.657 1.957-3.314 3.486-4.358 3.486-.49 0-.798-.367-.245-1.285l3.375-5.87c.982-1.773.062-3.057-1.227-3.057-.982 0-2.087.55-3.253 1.712l.86-1.529h-2.333l-3.743 6.482c-.123-.061-.185-.123-.307-.184l-.184.184c-1.044 1.162-2.332 1.712-3.499 1.712l2.21-3.791c1.411-2.446.123-4.709-2.087-4.709-1.78 0-3.191.734-4.541 3.058l-1.166 1.957-.982 1.712c-.062-.062-.123-.062-.184-.123l-.184.184c-1.903 2.201-3.56 3.608-5.401 4.403l6.382-10.885H69.76l-4.112 7.154c-1.78 1.652-3.19 2.569-3.62 2.385-.553-.244 0-1.1.306-1.59l4.542-7.888h-2.332l-3.744 6.42c-.061-.06-.123-.06-.184-.122l-.184.184c-1.657 1.957-3.314 3.486-4.357 3.486-.491 0-.798-.367-.246-1.285l3.376-5.87c.982-1.773.06-3.057-1.228-3.057-.982 0-2.086.55-3.253 1.712l.86-1.529H53.25l-3.743 6.42c-.062-.06-.123-.122-.246-.122l-.184.184c-1.657 1.957-3.314 3.485-4.357 3.485-.491 0-.798-.367-.245-1.284l3.743-6.543h-1.35c.061-.978-.92-2.323-2.455-2.323-1.227 0-3.007.978-3.989 2.69l-2.393 4.158c-.185-.122-.369-.244-.491-.306l-.185.184c-1.657 1.957-3.743 3.486-6.014 3.486-1.596 0-2.577-1.59-1.166-3.975l.675-1.162c.43.061.86.122 1.35.122 2.455 0 5.278-1.284 7.12-4.464.674-1.161.92-2.201.92-3.118 0-2.08-1.35-3.486-3.069-3.486-1.288 0-2.823.918-3.866 2.69l-3.621 6.238c-1.35-.734-2.087-2.018-2.087-3.302 0-1.1.491-2.14 1.473-2.935l-.736-1.346c-1.657 1.162-2.394 2.752-2.394 4.342 0 1.835 1.044 3.608 2.946 4.586l-.675 1.223c-1.657 2.813-.675 5.932 2.64 5.932 2.577 0 4.54-1.162 6.136-2.69-.49 1.467.246 2.69 1.903 2.69.92 0 2.086-.612 3.252-1.529.123.917.86 1.529 2.026 1.529 1.104 0 2.332-.673 3.498-1.712l-.86 1.467h2.333l3.56-6.176c3.559-4.464 5.154-3.852 4.111-2.14l-3.007 5.259c-.982 1.712-.307 3.302 1.596 3.302 1.227 0 2.639-.856 3.989-2.08-.307 1.285.306 2.08 1.472 2.08 1.105 0 2.394-.917 3.437-1.896l-1.288 2.201c-3.13.918-5.156 2.202-5.156 3.975 0 2.202 3.437 2.69 5.094-.183l1.78-3.058c1.964-.611 3.866-1.834 5.892-3.79-.307 3.24 3.989 3.974 6.628.672h.49c.86 0 2.026-.306 3.07-.918l-1.535 2.691h2.332l3.56-6.176c3.559-4.464 5.155-3.852 4.111-2.14l-3.007 5.259c-.982 1.712-.307 3.302 1.596 3.302 1.902 0 4.112-2.08 6.076-4.28-.062-.184-.491-.551-.798-.674zM35.208 26.21c.675-1.162 1.473-1.712 2.087-1.712.86 0 1.289.55 1.289 1.407 0 2.14-2.64 6.053-6.26 6.053h-.491l3.375-5.748zm8.224 9.05c-1.411 2.202-2.823 3.241-3.744 3.241-.49 0-.797-.367-.245-1.284l3.253-5.626c1.227-2.14 3.743-1.59 2.577.49l-1.84 3.18zm17.675 8.439c-.49.856-1.289.734-1.289.122 0-.611.553-1.284 2.332-1.956l-1.043 1.834zm15.711-8.683h-.123c-.736 0-1.35.611-1.35 1.406 0 .306.061.55.246.795v.061c-1.105 1.896-3.744 1.53-2.394-.917l1.78-3.057 1.105-1.896c1.657-2.752 3.866-1.651 2.454.734l-1.718 2.874zM147.088 35.688c-.123-.367-.552-.733-.859-.794l-.184.183c-.86.978-1.903 1.896-2.824 2.507.737-2.201.553-5.626 2.026-8.56l-1.719-.918c-.982 1.345-3.068 4.341-5.155 6.788l-.184.183c-1.657 1.957-3.314 3.485-4.357 3.485-.491 0-.982-.489-.982-1.59v-.978c1.657.184 3.375-.856 4.48-2.752l.614-1.1c2.148-3.73-1.351-4.953-3.744-2.752l3.314-5.748h-2.332l-6.628 11.496a1.868 1.868 0 00-.43-.306l-.184.184c-1.657 1.957-3.805 3.485-5.462 3.485-1.411 0-2.271-.917-1.227-2.751l2.393-4.159c1.35-2.323 3.744-1.895 2.332.49l-.307.55h1.903l.307-.55c1.227-2.14.061-3.73-1.841-3.73-1.903 0-3.376.978-4.358 2.69l-2.271 3.914c-.061 0-.122-.061-.122-.061l-.184.183c-1.657 1.957-3.314 3.485-4.358 3.485-.491 0-.798-.366-.245-1.284l4.971-8.683h-2.332l-4.112 7.216c-1.78 1.59-3.13 2.507-3.56 2.323-.552-.244 0-1.1.307-1.59l4.542-7.888h-2.332l-4.542 7.766c-.491.428-1.043.856-1.473 1.223.737-2.201.553-5.626 2.025-8.56l-1.718-.918c-.982 1.345-6.321 8.439-8.47 10.885.185.305.553.55.86.795 1.35-1.53 5.769-7.216 6.567-8.317-.921 2.385-.43 6.727-2.639 6.727-.798 0-1.105-.856-1.105-.856l-1.473.733s.43 1.896 2.578 1.896c.245 0 .429 0 .675-.061h.061c1.166-.184 2.332-.673 3.437-1.468 0 .918.552 1.529 1.534 1.529 1.289 0 2.701-1.162 3.805-2.201-.245 1.223.491 2.201 1.964 2.201 1.473 0 3.069-1.162 4.603-2.69 0 1.528 1.227 2.69 3.13 2.69 1.902 0 3.744-1.04 5.401-2.446l-1.289 2.263h2.332l2.639-4.587v1.835c0 1.957.368 2.996 2.271 2.996 1.902 0 4.111-2.079 6.075-4.28 1.351-1.529 2.455-3.119 3.314-4.22-.92 2.385-.429 6.727-2.639 6.727-.797 0-1.104-.856-1.104-.856l-1.473.734s.429 1.895 2.577 1.895c.246 0 .43 0 .676-.061h.061c2.332-.428 4.725-2.324 6.444-4.342zm-15.466-1.834l.675-1.162c2.701-3.73 4.542-2.69 3.683-1.284l-1.105 1.896c-.675 1.223-2.7 2.079-3.253.55zM147.026 37.278a1.36 1.36 0 00-1.35 1.345c0 .734.553 1.346 1.35 1.346.737 0 1.351-.55 1.351-1.346a1.36 1.36 0 00-1.351-1.345zM147.149 36.36h2.332l7.304-12.658h-2.333l-7.303 12.658z" fill="#fff"/></g></symbol><symbol id="sedona_icon"><g fill="none"><path d="M27.187 13.372c-2.209-1.834-4.97-3.057-7.917-3.057-2.209 0-5.093 1.284-5.093 3.852 0 2.69 3.252 3.73 5.278 4.342l3.068.917c6.383 1.896 11.354 5.075 11.354 12.475 0 4.524-1.105 9.233-4.726 12.29-3.62 3.058-8.408 4.28-13.01 4.28-5.77 0-11.477-1.956-16.141-5.197l4.971-9.478c3.007 2.63 6.505 4.709 10.617 4.709 2.823 0 5.77-1.407 5.77-4.587 0-3.363-4.665-4.463-7.243-5.197-7.487-2.202-12.397-4.097-12.397-12.964C1.718 6.462 8.346.41 17.552.41c4.603 0 10.31 1.467 14.361 3.79l-4.726 9.173zM56.216 11.66v7.644h13.44v10.09h-13.44v7.888h14.238v10.09H44.31V1.631h26.144v10.09l-14.238-.062zM79.291 1.632H96.23c12.765 0 23.321 10.028 23.321 22.87 0 12.84-10.617 22.87-23.321 22.87H79.29V1.631zm11.968 35.65h2.7c7.119 0 13.195-3.914 13.195-12.78 0-8.194-5.401-12.78-13.072-12.78h-2.823v25.56zM175.951 23.645c0 14.798-10.679 25.255-25.408 25.255-14.729 0-25.407-10.457-25.407-25.255 0-13.82 12.212-23.542 25.407-23.542s25.408 9.723 25.408 23.542zm-38.418.061c0 7.889 5.83 13.637 12.949 13.637s12.949-5.748 12.949-13.637c0-6.298-5.83-12.107-12.949-12.107-7.058 0-12.949 5.809-12.949 12.107zM182.272 1.632h11.967l21.848 28.006h.123V1.632h11.968v45.74H216.21l-21.848-28.068h-.123V47.37h-11.967V1.631zM249.842 39.422l-3.192 7.95h-12.642l17.675-45.74h13.01L282 47.372h-12.704l-3.007-7.95h-16.447zm8.346-23.665h-.123l-4.909 14.554h9.942l-4.91-14.554z" fill="#fff"/></g></symbol><symbol id="tg-icon"><path fill="currentColor" d="M21.44 1.622l-3.17 14.944c-.239 1.055-.862 1.317-1.748.82l-4.828-3.557-2.33 2.24c-.258.259-.473.474-.97.474l.347-4.917 8.948-8.086c.39-.347-.084-.54-.604-.192L6.022 10.314 1.26 8.823C.224 8.5.205 7.787 1.476 7.29L20.103.113c.863-.323 1.617.192 1.336 1.51z"/></symbol><symbol id="vk-icon" viewBox="0 0 24 14"><path fill="currentColor" d="M23.45.948c.166-.546 0-.948-.795-.948H20.03c-.668 0-.976.347-1.143.73 0 0-1.335 3.196-3.226 5.272-.612.602-.89.793-1.224.793-.167 0-.418-.191-.418-.738V.948c0-.656-.184-.948-.74-.948H9.151c-.417 0-.668.304-.668.593 0 .621.946.765 1.043 2.513v3.798c0 .833-.153.984-.487.984-.89 0-3.055-3.211-4.34-6.885C4.45.288 4.198 0 3.527 0H.9C.15 0 0 .347 0 .73c0 .682.89 4.07 4.145 8.551C6.315 12.341 9.37 14 12.153 14c1.669 0 1.875-.368 1.875-1.003v-2.313c0-.737.158-.884.687-.884.39 0 1.057.192 2.615 1.667C19.11 13.216 19.403 14 20.405 14h2.625c.75 0 1.126-.368.91-1.096-.238-.724-1.088-1.775-2.215-3.022-.612-.71-1.53-1.475-1.809-1.858-.389-.491-.278-.71 0-1.147 0 0 3.2-4.426 3.533-5.929h.001z"/></symbol><symbol id="welcome_icon"><g fill="none"><path d="M39.385 42.804l-.123.123c-.859.917-1.84 1.345-2.761 1.345l1.718-2.996c1.105-1.896.061-3.73-1.657-3.73-1.412 0-2.516.55-3.56 2.384l-.92 1.59-.737 1.284-.122.123c-1.35 1.529-2.64 2.752-3.437 2.752-.43 0-.614-.306-.184-.979l3.927-6.849h1.473l.553-.856H32.02L33.74 34h-1.841l-1.719 2.996h-1.657l-.552.856h1.657l-3.682 6.36c-.798 1.345-.246 2.63 1.227 2.63 1.043 0 2.27-.796 3.376-1.896 0 2.323 3.252 2.813 5.216.305h.43c1.104 0 2.823-.672 3.743-1.773 0-.306-.306-.55-.552-.673zm-3.928.123h-.061c-.614 0-1.105.489-1.105 1.1 0 .245.062.428.184.612v.061c-.859 1.468-2.946 1.223-1.902-.734l1.411-2.385.86-1.467c1.288-2.201 3.068-1.345 1.963.55l-1.35 2.263zM64.854 42.804l-.123.122c-1.35 1.53-3.007 2.752-4.296 2.752-1.104 0-1.78-.734-.982-2.201l.184-.306c1.166.49 3.437.245 4.787-2.14l.246-.428c.982-1.712.061-2.935-1.473-2.935-1.473 0-2.639.795-3.437 2.14l-1.78 3.057-.122.123c-1.35 1.528-2.64 2.751-3.437 2.751-.43 0-.614-.305-.184-.978l2.639-4.647c.798-1.407.061-2.385-.982-2.385-.798 0-1.657.428-2.578 1.406l2.946-5.075h-1.841l-5.094 8.744-.123.122c-1.35 1.53-2.639 2.752-3.436 2.752-.43 0-.614-.305-.184-.978l3.927-6.849h1.473l.552-.856h-1.534l1.719-2.996h-1.842l-1.718 2.996h-1.657l-.552.856h1.657l-3.683 6.36c-.797 1.345-.245 2.63 1.228 2.63.736 0 1.534-.368 2.332-.98l-.491.796h1.841l2.762-4.831c2.823-3.547 4.05-3.058 3.314-1.712l-2.394 4.158c-.797 1.345-.245 2.63 1.228 2.63 1.104 0 2.332-.857 3.437-1.958.061 1.162 1.043 1.957 2.516 1.957 2.086 0 4.173-1.59 5.646-3.363.061-.367-.245-.611-.491-.734zm-3.498-2.568c1.043-1.834 2.946-1.529 1.841.367l-.245.428c-.86 1.468-2.087 1.468-2.762 1.223l1.166-2.018zM131.81 42.804l-.123.123c-.675.795-1.473 1.467-2.209 2.018.613-1.774.429-4.403 1.595-6.788l-1.35-.734c-.736 1.04-2.393 3.425-4.112 5.381l-.123.123c-1.35 1.528-2.639 2.751-3.436 2.751-.43 0-.614-.305-.184-.978l3.927-6.849h-1.841l-3.253 5.687c-1.411 1.284-2.454 1.957-2.823 1.835-.429-.184 0-.856.246-1.284l3.559-6.238h-1.841l-2.884 4.953-.123.123c-.859.917-1.841 1.345-2.762 1.345l1.719-2.996c1.104-1.896.061-3.73-1.657-3.73-1.412 0-2.516.55-3.56 2.384l-.92 1.59-.737 1.284-.122.123c-1.351 1.528-3.008 2.751-4.296 2.751-1.105 0-1.78-.733-.982-2.2l.184-.307c1.166.49 3.436.245 4.787-2.14l.245-.428c.982-1.712.062-2.935-1.473-2.935-1.473 0-2.639.795-3.437 2.14l-1.779 3.058-.123.122c-1.534 1.773-2.823 2.874-4.296 3.485l4.112-7.032h-1.105c0-.734-.798-1.773-1.902-1.773-.982 0-2.394.795-3.13 2.14l-1.78 3.058-.123.122c-1.35 1.529-2.639 2.752-3.436 2.752-.43 0-.614-.306-.185-.979l1.841-3.18c.614-1.1.307-1.773-.245-2.507l-1.043-1.223c-.246-.305-.246-.733.122-1.04l-.981-1.039c-1.044.918-1.105 1.957-.492 2.813l.185.184c-.798 1.161-1.903 2.69-3.13 4.097l-.123.122c-.86.917-1.841 1.345-2.762 1.345l1.719-2.996c1.104-1.896.061-3.73-1.657-3.73-1.412 0-2.517.55-3.56 2.385l-.92 1.59-.737 1.284-.123.122c-1.534 1.773-2.823 2.874-4.296 3.485l4.112-7.032h-1.104c0-.734-.798-1.773-1.903-1.773-.982 0-2.393.795-3.13 2.14l-2.577 4.464c-.798 1.345-.246 2.63 1.227 2.63.49 0 1.105-.245 1.78-.612l-.491.856c-2.455.734-4.05 1.773-4.05 3.119 0 1.773 2.7 2.14 4.05-.123l1.411-2.385c1.473-.427 2.885-1.345 4.419-2.751 0 2.324 3.253 2.813 5.217.306h.43c1.104 0 2.822-.673 3.743-1.774.859-1.04 1.595-1.957 3.068-3.913l.246.305c.245.306.307.673.123 1.04l-1.964 3.363c-.798 1.345-.246 2.63 1.227 2.63.92 0 1.964-.612 2.946-1.468 0 .856.552 1.468 1.596 1.468.49 0 1.104-.245 1.78-.612l-.43.734c-2.455.734-4.05 1.773-4.05 3.118 0 1.774 2.7 2.14 4.05-.122l1.411-2.385c1.473-.489 2.946-1.345 4.48-2.813.062 1.162.982 1.957 2.517 1.957 1.472 0 3.007-.856 4.234-1.957-.061 2.385 3.253 2.874 5.217.367h.429c.553 0 1.35-.183 2.026-.55-.491 1.284-.062 2.14.981 2.14.982 0 2.148-.917 3.008-1.773-.184.978.429 1.773 1.595 1.773 1.535 0 3.253-1.59 4.787-3.363 1.044-1.223 1.964-2.507 2.639-3.363-.736 1.896-.307 5.32-2.086 5.32-.614 0-.86-.673-.86-.673l-1.166.612s.307 1.467 2.026 1.467c.184 0 .306 0 .491-.06h.061c1.902-.245 3.744-1.713 5.094-3.303-.062-.306-.368-.611-.675-.673zm-26.329-2.568c1.044-1.834 2.946-1.529 1.842.367l-.246.428c-.859 1.468-2.086 1.468-2.762 1.223l1.166-2.018zm-35.104 9.54c-.368.672-.982.61-.982.06 0-.489.43-1.039 1.841-1.59l-.859 1.53zm.86-4.098c-.43 0-.614-.305-.185-.978l2.578-4.464c.982-1.712 2.946-1.284 2.025.367l-1.411 2.446c-1.105 1.773-2.271 2.63-3.008 2.63zm11.292-2.751h-.062c-.613 0-1.104.489-1.104 1.1 0 .245.061.428.184.612v.061c-.86 1.468-2.946 1.223-1.903-.734l1.412-2.385.859-1.467c1.289-2.201 3.069-1.345 1.964.55l-1.35 2.263zm11.538 6.848c-.369.673-.982.612-.982.062 0-.49.43-1.04 1.84-1.59l-.858 1.528zm.859-4.097c-.43 0-.614-.305-.184-.978l2.577-4.464c.982-1.712 2.946-1.284 2.025.367l-1.411 2.446c-1.105 1.773-2.27 2.63-3.007 2.63zm18.104-2.751h-.061c-.614 0-1.105.489-1.105 1.1 0 .245.061.428.184.612v.061c-.859 1.468-2.946 1.223-1.902-.734l1.411-2.385.859-1.467c1.289-2.201 3.069-1.345 1.964.55l-1.35 2.263zM17.844 40.847H.107v1.223h17.737v-1.223zM157.156 40.847H139.42v1.223h17.736v-1.223z" fill="#766458"/><path d="M38.035 0h4.726l-.737 27.456h-8.899l-1.227-11.313-1.228 11.313h-8.96L21.035 0H25.7l.368 22.747h.491L29.566 0h4.664l3.007 22.747h.491L38.035 0zM57.55 22.747v4.77H44.725V0h12.827v4.708h-8.163v6.605h6.506v4.708h-6.505v6.665h8.162v.061zM70.684 22.747v4.77h-11.23V0h4.664v22.747h6.566zM80.626 17.366l4.726-1.1v8.316c0 1.59-1.35 2.874-2.885 2.874H75.41c-1.596 0-2.885-1.345-2.885-2.874V2.874A2.876 2.876 0 0175.41 0h7.058c1.534 0 2.884 1.284 2.884 2.874v5.565l-4.726 1.1V4.647h-3.375v18.04h3.375v-5.32zM98.117 0c1.534 0 2.884 1.284 2.884 2.874v21.647c0 1.59-1.35 2.874-2.884 2.874h-7.058c-1.595 0-2.884-1.345-2.884-2.874V2.874A2.876 2.876 0 0191.059 0h7.058zm-1.841 4.708H92.9v18.04h3.376V4.707zM116.344 0h4.665v27.456h-4.665V13.942l-1.902 6.971h-4.603l-1.841-6.971v13.514h-4.664V0h4.664l4.173 13.27L116.344 0zM136.167 22.747v4.77h-12.826V0h12.826v4.708h-8.162v6.605h6.505v4.708h-6.505v6.665h8.162v.061z" fill="#81B3D3"/></g></symbol><symbol id="youtube-icon"><path fill="currentColor" d="M17.181 0H2.813C1.306 0 0 1.3 0 2.8v8.3C0 12.7 1.306 14 2.813 14h14.368c1.608 0 2.814-1.3 2.814-2.8V2.8c.1-1.5-1.206-2.8-2.814-2.8zM7.033 10.4V3.6L13.866 7l-6.833 3.4z"/></symbol></svg>