<svg width="78" height="73" fill="none" xmlns="http://www.w3.org/2000/svg"><path d="M30.88 65.44h16.5V41.67h-16.5v23.77Zm13.5-2.89H33.88v-18h10.41v18h.1Z" fill="#81B3D2"/><path d="m75.32 39.68 2.17-2.09-10.21-9.84V.9H53.05v13.12L38.92.5.46 37.7l2.16 2.08 8.05-7.76v37.6H6.65v2.88h65.89v-2.88h-5.26v-37.7l8.04 7.76ZM56.04 3.88h8.14v20.98l-8.14-7.85V3.88Zm8.25 65.64H13.76V29.04L38.92 4.68l25.26 24.36v40.48h.1Z" fill="#81B3D2"/><path d="M31.19 27.55c0 4.28 3.6 7.76 7.94 7.76 4.43 0 8.04-3.48 8.04-7.76 0-4.28-3.6-7.66-8.04-7.66-4.44 0-7.94 3.38-7.94 7.66Zm7.94-4.97a5.08 5.08 0 0 1 5.15 4.97 5.08 5.08 0 0 1-5.15 4.97 5.08 5.08 0 0 1-5.16-4.97 5.15 5.15 0 0 1 5.16-4.97ZM20.98 41.67h-3.1v3.88h3.1v-3.88ZM27.06 41.67h-3.09v3.88h3.1v-3.88ZM20.98 47.64h-3.1v3.88h3.1v-3.88ZM27.06 47.64h-3.09v3.88h3.1v-3.88ZM53.87 41.67h-3.09v3.88h3.1v-3.88ZM60.06 41.67h-3.1v3.88h3.1v-3.88ZM53.87 47.64h-3.09v3.88h3.1v-3.88ZM60.06 47.64h-3.1v3.88h3.1v-3.88Z" fill="#81B3D2"/></svg>