<svg width="460" height="81" id="sedona_icon" viewBox="0 0 460 81" xmlns="http://www.w3.org/2000/svg">
  <path d="M44.5 22.6c-3.6-3-8.1-5-12.9-5-3.6 0-8.3 2.1-8.3 6.3 0 4.4 5.3 6.1 8.6 7.1l5 1.5c10.4 3.1 18.5 8.3 18.5 20.4 0 7.4-1.8 15.1-7.7 20.1-5.9 5-13.7 7-21.2 7-9.4 0-18.7-3.2-26.3-8.5L8.3 56c4.9 4.3 10.6 7.7 17.3 7.7 4.6 0 9.4-2.3 9.4-7.5 0-5.5-7.6-7.3-11.8-8.5C11 44.1 3 41 3 26.5 3 11.3 13.8 1.4 28.8 1.4c7.5 0 16.8 2.4 23.4 6.2l-7.7 15ZM91.8 19.8v12.5h21.9v16.5H91.8v12.9H115v16.5H72.4V3.4H115v16.5l-23.2-.1ZM129.4 3.4H157c20.8 0 38 16.4 38 37.4s-17.3 37.4-38 37.4h-27.6V3.4Zm19.5 58.3h4.4c11.6 0 21.5-6.4 21.5-20.9 0-13.4-8.8-20.9-21.3-20.9h-4.6v41.8ZM286.9 39.4c0 24.2-17.4 41.3-41.4 41.3s-41.4-17.1-41.4-41.3C204.1 16.8 224 .9 245.5.9s41.4 15.9 41.4 38.5Zm-62.6.1c0 12.9 9.5 22.3 21.1 22.3 11.6 0 21.1-9.4 21.1-22.3 0-10.3-9.5-19.8-21.1-19.8-11.5 0-21.1 9.5-21.1 19.8ZM297.2 3.4h19.5l35.6 45.8h.2V3.4H372v74.8h-19.5l-35.6-45.9h-.2v45.9h-19.5V3.4ZM407.3 65.2l-5.2 13h-20.6l28.8-74.8h21.2l28.2 74.8H439l-4.9-13h-26.8Zm13.6-38.7h-.2l-8 23.8h16.2l-8-23.8Z" fill="#fff"/>
</svg>
